<svg width="660" height="117" xmlns="http://www.w3.org/2000/svg">

 <g>
  <title>Layer 1</title>
  <g stroke="null">
   <g stroke="null">
    <title stroke="null">Layer 1</title>
    <rect stroke="null" x="-292.99996" y="-390.00001" class="st0" width="1920.99998" height="1080" fill="none" id="svg_24"/>
    <rect stroke="null" x="-292.99996" y="-390.00001" class="st0" width="1920.99998" height="1080" fill="none" id="svg_23"/>
    <rect stroke="null" x="-292.99996" y="-390.00001" class="st0" width="1920.99998" height="1080" fill="none" id="svg_22"/>
    <rect stroke="null" x="-56.72697" y="-46.92001" class="st1" width="772.10192" height="393.85" fill="#FFFFFF" id="svg_21"/>
    <rect stroke="null" x="-292.99996" y="-390.00001" class="st0" width="1920.99998" height="1080" fill="none" id="svg_20"/>
    <rect stroke="null" x="-292.99996" y="-390.00001" class="st0" width="1920.99998" height="1080" fill="none" id="svg_19"/>
    <g stroke="null" id="svg_7">
     <path stroke="null" class="st2" d="m71.82995,227.93999l22.84189,0c5.65294,0 10.54549,0.96 14.68765,2.86c4.14216,1.91 7.3038,4.61 9.48494,8.11c2.18114,3.5 3.2717,7.61 3.2717,12.34c0,6.62 -1.47077,12.42 -4.40229,17.43c-2.93153,5 -7.06368,8.88 -12.38645,11.62s-11.46597,4.11 -18.39958,4.11l-26.39374,0l11.29588,-56.47zm15.41803,47.6c4.95258,0 9.25482,-1.02 12.91672,-3.07c3.66191,-2.04 6.47337,-4.85 8.43439,-8.43c1.96102,-3.58 2.94153,-7.62 2.94153,-12.14c0,-4.73 -1.5308,-8.43 -4.6024,-11.09c-3.0716,-2.66 -7.53392,-3.99 -13.39697,-3.99l-12.99677,0l-7.75404,38.72l14.45753,0z" fill="#333132" id="svg_18"/>
     <path stroke="null" class="st2" d="m134.14239,241.33999l10.08525,0l-8.55445,43.08l-10.08525,0l8.55445,-43.08zm2.99156,-8.76c-1.13059,-1.1 -1.69088,-2.43 -1.69088,-3.99c0,-1.83 0.63033,-3.36 1.90099,-4.6c1.26066,-1.24 2.92152,-1.86 4.96258,-1.86c1.77092,0 3.23168,0.52 4.36227,1.57s1.69088,2.33 1.69088,3.83c0,1.99 -0.63033,3.6 -1.90099,4.84c-1.26066,1.24 -2.92152,1.86 -4.96258,1.86c-1.78093,0.01 -3.23168,-0.55 -4.36227,-1.65z" fill="#333132" id="svg_17"/>
     <path stroke="null" class="st2" d="m152.51195,283.64999c-3.31172,-0.89 -5.88306,-2 -7.70401,-3.35l4.20219,-7.75c1.77092,1.29 4.01209,2.31 6.70349,3.07c2.6914,0.75 5.46284,1.13 8.31433,1.13c3.23168,0 5.66295,-0.44 7.3038,-1.33c1.64085,-0.89 2.46128,-2.17 2.46128,-3.83c0,-1.29 -0.69036,-2.23 -2.06107,-2.82c-1.37071,-0.59 -3.54184,-1.21 -6.49338,-1.86c-3.0716,-0.59 -5.58291,-1.22 -7.54393,-1.9c-1.96102,-0.67 -3.66191,-1.77 -5.08265,-3.31c-1.43074,-1.53 -2.14111,-3.64 -2.14111,-6.33c0,-4.46 1.87097,-8 5.61292,-10.61c3.74195,-2.61 8.70453,-3.91 14.89776,-3.91c2.96154,0 5.83304,0.34 8.63449,1.01c2.80146,0.67 5.08265,1.57 6.86357,2.7l-3.71193,7.75c-1.77092,-1.13 -3.78197,-1.96 -6.01313,-2.5c-2.23116,-0.54 -4.48233,-0.81 -6.74351,-0.81c-3.17165,0 -5.58291,0.48 -7.22376,1.45c-1.64085,0.97 -2.46128,2.23 -2.46128,3.79c0,1.4 0.71037,2.41 2.14111,3.03c1.42074,0.62 3.6419,1.25 6.66347,1.9c3.01157,0.59 5.49286,1.22 7.42386,1.9c1.94101,0.67 3.60187,1.76 5.0026,3.27c1.40073,1.51 2.10109,3.55 2.10109,6.13c0,4.63 -1.88098,8.2 -5.65294,10.73c-3.77196,2.53 -8.77457,3.79 -15.01782,3.79c-3.69192,-0.01 -7.17373,-0.45 -10.47545,-1.34z" fill="#333132" id="svg_16"/>
     <path stroke="null" class="st2" d="m239.88744,241.33999l-8.55445,43.08l-9.605,0l0.89046,-4.44c-3.77196,3.34 -8.4444,5 -14.04731,5c-3.55185,0 -6.76352,-0.75 -9.64502,-2.26c-2.8815,-1.5 -5.15268,-3.7 -6.82355,-6.58c-1.67087,-2.88 -2.5013,-6.25 -2.5013,-10.12c0,-4.79 1.06055,-9.1 3.19166,-12.95c2.1211,-3.84 5.03262,-6.84 8.71454,-9c3.68192,-2.15 7.81407,-3.23 12.38645,-3.23c6.88358,0 11.78614,2.29 14.68765,6.86l1.21063,-6.37l10.09526,0l0,0.01zm-21.11099,32.95c2.23116,-1.37 3.99208,-3.28 5.28275,-5.73c1.29067,-2.45 1.94101,-5.23 1.94101,-8.35c0,-3.39 -1.00052,-6.04 -2.99156,-7.95c-1.99104,-1.91 -4.79249,-2.86 -8.39437,-2.86c-2.85148,0 -5.39281,0.69 -7.62397,2.06c-2.23116,1.37 -3.99208,3.28 -5.28275,5.73c-1.29067,2.45 -1.94101,5.23 -1.94101,8.35c0,3.39 0.99052,6.04 2.99156,7.95c1.99104,1.91 4.79249,2.86 8.39437,2.86c2.85148,0 5.39281,-0.69 7.62397,-2.06z" fill="#333132" id="svg_15"/>
     <path stroke="null" class="st2" d="m248.16174,283.64999c-3.31172,-0.89 -5.88306,-2 -7.70401,-3.35l4.20219,-7.75c1.77092,1.29 4.01209,2.31 6.70349,3.07c2.6914,0.75 5.46284,1.13 8.31433,1.13c3.23168,0 5.66295,-0.44 7.3038,-1.33c1.64085,-0.89 2.46128,-2.17 2.46128,-3.83c0,-1.29 -0.69036,-2.23 -2.06107,-2.82c-1.37071,-0.59 -3.54184,-1.21 -6.49338,-1.86c-3.0716,-0.59 -5.58291,-1.22 -7.54393,-1.9c-1.96102,-0.67 -3.66191,-1.77 -5.08265,-3.31c-1.43074,-1.53 -2.14111,-3.64 -2.14111,-6.33c0,-4.46 1.87097,-8 5.61292,-10.61c3.74195,-2.61 8.70453,-3.91 14.89776,-3.91c2.96154,0 5.83304,0.34 8.63449,1.01c2.80146,0.67 5.08265,1.57 6.86357,2.7l-3.71193,7.75c-1.77092,-1.13 -3.78197,-1.96 -6.01313,-2.5c-2.23116,-0.54 -4.48233,-0.81 -6.74351,-0.81c-3.17165,0 -5.58291,0.48 -7.22376,1.45c-1.64085,0.97 -2.46128,2.23 -2.46128,3.79c0,1.4 0.71037,2.41 2.14111,3.03c1.42074,0.62 3.6419,1.25 6.66347,1.9c3.01157,0.59 5.49286,1.22 7.42386,1.9c1.94101,0.67 3.60187,1.76 5.0026,3.27c1.40073,1.51 2.10109,3.55 2.10109,6.13c0,4.63 -1.88098,8.2 -5.65294,10.73c-3.77196,2.53 -8.77457,3.79 -15.01782,3.79c-3.68192,-0.01 -7.16373,-0.45 -10.47545,-1.34z" fill="#333132" id="svg_14"/>
     <path stroke="null" class="st2" d="m299.05824,269.97999c-0.11006,0.86 -0.16008,1.48 -0.16008,1.86c0,3.23 1.69088,4.84 5.08265,4.84c2.10109,0 3.98207,-0.56 5.65294,-1.69l1.77092,7.42c-2.74143,1.72 -6.21323,2.58 -10.41542,2.58c-3.71193,0 -6.70349,-1.02 -8.96467,-3.07c-2.26118,-2.04 -3.39177,-4.87 -3.39177,-8.47c0,-1.18 0.11006,-2.31 0.32017,-3.39l4.11214,-20.33l-7.02366,0l1.61084,-8.07l7.02366,0l1.94101,-9.84l10.08525,0l-2.02105,9.84l11.62605,0l-1.61084,8.07l-11.62605,0l-4.01209,20.25z" fill="#333132" id="svg_13"/>
     <path stroke="null" class="st2" d="m362.90147,265.85999l-34.22782,0c0.16008,7.05 4.30224,10.57 12.42647,10.57c2.47129,0 4.79249,-0.39 6.94361,-1.17c2.15112,-0.78 3.98207,-1.87 5.49286,-3.27l4.20219,7.02c-2.21115,1.99 -4.85253,3.48 -7.95414,4.48c-3.09161,0.99 -6.3333,1.49 -9.72506,1.49c-4.30224,0 -8.0642,-0.78 -11.25586,-2.34c-3.20167,-1.56 -5.66295,-3.78 -7.38384,-6.66c-1.7209,-2.88 -2.58134,-6.2 -2.58134,-9.96c0,-4.79 1.06055,-9.1 3.19166,-12.95c2.1211,-3.84 5.08265,-6.84 8.87462,-9c3.79197,-2.15 8.05419,-3.23 12.79666,-3.23c6.02314,0 10.84565,1.68 14.44752,5.04c3.60187,3.36 5.41282,7.97 5.41282,13.84c-0.01001,2.11 -0.23012,4.15 -0.66034,6.14zm-28.37477,-14.2c-2.39124,1.83 -4.05211,4.33 -4.96258,7.5l24.70286,0c0.05003,-3.23 -0.93048,-5.74 -2.94153,-7.54c-2.02105,-1.8 -4.72246,-2.7 -8.11422,-2.7c-3.39177,0 -6.28327,0.91 -8.68452,2.74z" fill="#333132" id="svg_12"/>
     <path stroke="null" class="st2" d="m391.67645,242.21999c2.72142,-0.91 5.9631,-1.37 9.72506,-1.37l-1.86097,9.6c-0.92048,-0.16 -1.75091,-0.24 -2.5013,-0.24c-8.23429,0 -13.20687,4.33 -14.93778,12.99l-4.28223,21.22l-10.08525,0l8.55445,-43.08l9.605,0l-1.13059,5.57c1.90099,-2.21 4.19218,-3.77 6.9136,-4.69z" fill="#333132" id="svg_11"/>
     <path stroke="null" class="st2" d="m434.89895,227.93999l10.49546,0l-9.52496,47.6l29.54538,0l-1.77092,8.88l-40.04084,0l11.29588,-56.48z" fill="#333132" id="svg_10"/>
     <path stroke="null" class="st2" d="m521.03379,241.33999l-8.55445,43.08l-9.605,0l0.89046,-4.44c-3.77196,3.34 -8.4444,5 -14.04731,5c-3.55185,0 -6.76352,-0.75 -9.64502,-2.26c-2.8815,-1.5 -5.15268,-3.7 -6.82355,-6.58c-1.67087,-2.88 -2.5013,-6.25 -2.5013,-10.12c0,-4.79 1.06055,-9.1 3.19166,-12.95c2.1211,-3.84 5.03262,-6.84 8.71454,-9c3.68192,-2.15 7.81407,-3.23 12.38645,-3.23c6.88358,0 11.78614,2.29 14.68765,6.86l1.21063,-6.37l10.09526,0l0,0.01zm-21.11099,32.95c2.23116,-1.37 3.99208,-3.28 5.28275,-5.73c1.29067,-2.45 1.94101,-5.23 1.94101,-8.35c0,-3.39 -1.00052,-6.04 -2.99156,-7.95c-1.99104,-1.91 -4.79249,-2.86 -8.39437,-2.86c-2.85148,0 -5.39281,0.69 -7.62397,2.06c-2.23116,1.37 -3.99208,3.28 -5.28275,5.73c-1.29067,2.45 -1.94101,5.23 -1.94101,8.35c0,3.39 0.99052,6.04 2.99156,7.95c1.99104,1.91 4.79249,2.86 8.39437,2.86c2.84148,0 5.39281,-0.69 7.62397,-2.06z" fill="#333132" id="svg_9"/>
     <path stroke="null" class="st2" d="m601.42564,241.33999l-24.05252,43.08l-9.92517,0l-5.81303,-29.69l-16.86878,29.69l-9.76508,0l-7.91412,-43.08l9.20479,0l5.49286,31.71l17.99937,-31.71l8.63449,0l5.73298,31.71l17.75924,-31.71l9.51495,0z" fill="#333132" id="svg_8"/>
    </g>
    <rect stroke="null" x="-292.99996" y="-390.00001" class="st0" width="1920.99998" height="1080" fill="none" id="svg_6"/>
    <g stroke="null" id="svg_2">
     <path stroke="null" class="st2" d="m611.46086,116.37999c9.77509,0 18.6297,-1.72 26.58384,-5.15c7.95414,-3.43 14.6076,-8.43 19.9804,-14.98l-16.75872,-15.46c-7.62397,8.91 -17.07889,13.36 -28.35476,13.36c-6.98364,0 -13.21688,-1.53 -18.68973,-4.59c-5.47285,-3.06 -9.74507,-7.33 -12.80667,-12.81c-3.06159,-5.47 -4.59239,-11.7 -4.59239,-18.68c0,-6.98 1.5308,-13.2 4.59239,-18.68c3.06159,-5.48 7.33382,-9.74 12.80667,-12.8c5.48285,-3.06 11.70609,-4.59 18.68973,-4.59c11.27587,0 20.73079,4.41 28.35476,13.21l16.75872,-15.46c-5.3728,-6.44 -12.00625,-11.38 -19.90036,-14.82c-7.89411,-3.43 -16.72871,-5.15 -26.5038,-5.15c-11.59604,0 -22.05148,2.5 -31.33631,7.49c-9.29484,4.99 -16.59864,11.92 -21.91141,20.77c-5.32277,8.86 -7.97415,18.87 -7.97415,30.03c0,11.17 2.66139,21.18 7.97415,30.03c5.31277,8.86 12.61657,15.78 21.91141,20.78c9.28483,5.01 19.68024,7.5 31.17623,7.5m-104.24426,-73.75c0,6.22 -2.04106,11.05 -6.12319,14.49c-4.08212,3.44 -10.04523,5.15 -17.87931,5.15l-21.27107,0l0,-39.28l21.27107,0c7.83408,0 13.79718,1.69 17.87931,5.07c4.08212,3.38 6.12319,8.24 6.12319,14.57m28.51484,71.82l-25.29317,-36.23c7.41386,-3.22 13.12683,-7.86 17.15893,-13.93c4.02209,-6.06 6.04315,-13.28 6.04315,-21.66c0,-8.38 -1.99104,-15.62 -5.9631,-21.74c-3.97207,-6.12 -9.63502,-10.84 -16.99885,-14.17c-7.35383,-3.33 -16.02834,-4.99 -26.02355,-4.99l-48.81541,0l0,112.73l26.10359,0l0,-31.4l22.71182,0l1.29067,0l21.75132,31.4l28.03459,0l0,-0.01zm-122.44374,-91.79l0,-20.93l-85.23437,0l0,112.73l26.10359,0l0,-41.06l52.19717,0l0,-20.94l-52.19717,0l0,-29.8l59.13078,0zm-138.07187,91.79l26.10359,0l0,-112.72l-26.10359,0l0,112.72z" fill="#333132" id="svg_5"/>
     <polygon stroke="null" class="st3" points="40.91385628588978,75.76997375488281 0.6228938781864883,75.76997375488281 0.6228938781864883,41.24998474121094 40.91385628588978,41.24998474121094 40.91385628588978,41.22999572753906 40.91385628588978,0.9599762558937073 75.45183945290228,0.9599762558937073 75.45183945290228,41.22999572753906 75.44183974067346,41.24998474121094 115.74281736588455,41.24998474121094 115.74281736588455,75.76997375488281 75.44183974067346,75.76997375488281 75.45183945290228,75.75999450683594 75.45183945290228,116.02999877929688 40.91385628588978,116.02999877929688 40.91385628588978,75.75999450683594 " fill="#F5333F" id="svg_4"/>
     <path stroke="null" class="st3" d="m169.17062,57.87999c0,-26.82 21.75132,-48.56 48.58529,-48.56c5.97311,0 11.69609,1.08 16.97884,3.05c-9.93517,-7.86 -22.49171,-12.55 -36.14882,-12.55c-32.19676,0 -58.30035,26.09 -58.30035,58.28c0,32.18 26.10359,58.27 58.30035,58.27c14.11735,0 27.05408,-5.01 37.13933,-13.35c-5.5629,2.21 -11.61605,3.43 -17.96935,3.43c-26.83397,0 -48.58529,-21.75 -48.58529,-48.57" fill="#F5333F" id="svg_3"/>
    </g>
    <rect stroke="null" x="4.685" y="179.57999" class="st4" width="649.26798" height="4.62" fill="#E3E3E3" id="svg_1"/>
   </g>
  </g>
 </g>
</svg>
