<svg xmlns="http://www.w3.org/2000/svg" class="icon icon--linkedin" id="linkedin" width="15.988" height="16.506" viewBox="0 0 15.988 16.506">
    <g id="Group_53" data-name="Group 53" transform="translate(0 5.514)">
        <g id="Group_52" data-name="Group 52">
            <path id="Rectangle_16" d="M0 0h3.575v10.992H0z" class="cls-1" data-name="Rectangle 16"/>
        </g>
    </g>
    <g id="Group_55" data-name="Group 55" transform="translate(4.996 5.514)">
        <g id="Group_54" data-name="Group 54">
            <path id="Path_1109" d="M168.318 160.129c-.038-.012-.074-.025-.114-.036s-.1-.02-.145-.028a3.2 3.2 0 0 0-.642-.065 4.968 4.968 0 0 0-3.842 2.1V160H160v10.992h3.575v-6s2.7-3.763 3.842-1v6.995h3.574v-7.418a3.565 3.565 0 0 0-2.673-3.44z" class="cls-1" data-name="Path 1109" transform="translate(-160 -160)"/>
        </g>
    </g>
    <g id="Group_57" data-name="Group 57" transform="translate(.057)">
        <g id="Group_56" data-name="Group 56">
            <circle id="Ellipse_6" cx="2.11" cy="2.11" r="2.11" class="cls-1" data-name="Ellipse 6"/>
        </g>
    </g>
</svg>
