<svg width="104" height="103" viewBox="0 0 104 103" xmlns="http://www.w3.org/2000/svg"><g transform="translate(2.93 2.938)" fill="none"><path d="M18.3676471,-2.94117647 C6.66680956,-2.94117647 -2.94117647,6.66680956 -2.94117647,18.3676471 C-2.94117647,30.0678115 6.66300733,39.6730552 18.3638474,39.6764705 C30.0624927,39.6662255 39.6628092,30.0669684 39.6764686,18.371082 C39.6764686,6.66680956 30.0684846,-2.94117647 18.3676471,-2.94117647 Z M18.3676471,2.94117647 C26.8197507,2.94117647 33.7941176,9.91554338 33.7941176,18.3676471 C33.7842486,26.8162998 26.8130627,33.7867165 18.3621297,33.7941188 C9.91254848,33.7916505 2.94117647,26.8195092 2.94117647,18.3676471 C2.94117647,9.91554338 9.91554338,2.94117647 18.3676471,2.94117647 Z" transform="translate(0 29.706)" fill="#12284C"/><path d="M18.3676471,-2.94117647 C6.66680956,-2.94117647 -2.94117647,6.66680956 -2.94117647,18.3676471 C-2.94117647,30.0678115 6.66300733,39.6730552 18.3638474,39.6764705 C30.0624927,39.6662255 39.6628092,30.0669684 39.6764686,18.371082 C39.6764686,6.66680956 30.0684846,-2.94117647 18.3676471,-2.94117647 Z M18.3676471,2.94117647 C26.8197507,2.94117647 33.7941176,9.91554338 33.7941176,18.3676471 C33.7842486,26.8162998 26.8130627,33.7867165 18.3621297,33.7941188 C9.91254848,33.7916505 2.94117647,26.8195092 2.94117647,18.3676471 C2.94117647,9.91554338 9.91554338,2.94117647 18.3676471,2.94117647 Z" transform="translate(59.924)" fill="#12284C"/><path d="M18.3676471,-2.94117647 C6.66680956,-2.94117647 -2.94117647,6.66680956 -2.94117647,18.3676471 C-2.94117647,30.0678115 6.66300733,39.6730552 18.3638474,39.6764705 C30.0624927,39.6662255 39.6628092,30.0669684 39.6764686,18.371082 C39.6764686,6.66680956 30.0684846,-2.94117647 18.3676471,-2.94117647 Z M18.3676471,2.94117647 C26.8197507,2.94117647 33.7941176,9.91554338 33.7941176,18.3676471 C33.7842486,26.8162998 26.8130627,33.7867165 18.3621297,33.7941188 C9.91254848,33.7916505 2.94117647,26.8195092 2.94117647,18.3676471 C2.94117647,9.91554338 9.91554338,2.94117647 18.3676471,2.94117647 Z" transform="translate(59.938 59.609)" fill="#12284C"/><polygon points="1.3156734 -2.63049853 28.6774381 11.0547956 26.0460913 16.3157926 -1.3156734 2.63049853" transform="translate(34.818 56.232)" fill="#12284C"/><polygon points="25.8883546 -2.61764868 28.570469 2.61764868 1.34105721 16.5676487 -1.34105721 11.3323513" transform="translate(34.7 25.862)" fill="#12284C"/><path d="M9.48823529,18.9764706 C4.28235294,18.9764706 0,14.6941176 0,9.48823529 C0,4.28235294 4.28235294,0 9.48823529,0 C14.6941176,0 18.9764706,4.28235294 18.9764706,9.48823529 C18.9705882,14.6911765 14.6911765,18.9705882 9.48823529,18.9764706 Z" transform="translate(8.891 38.585)" fill="#26C9DE"/><path d="M9.48823529,18.9764706 C4.28235294,18.9764706 0,14.6941176 0,9.48823529 C0,4.28235294 4.28235294,0 9.48823529,0 C14.6941176,0 18.9764706,4.28235294 18.9764706,9.48823529 C18.9705882,14.6911765 14.6911765,18.9705882 9.48823529,18.9764706 Z" transform="translate(68.8 8.88)" fill="#26C9DE"/><path d="M9.48823529,18.9764706 C4.28235294,18.9764706 0,14.6941176 0,9.48823529 C0,4.28235294 4.28235294,0 9.48823529,0 C14.6941176,0 18.9764706,4.28235294 18.9764706,9.48823529 C18.9705882,14.6911765 14.6911765,18.9705882 9.48823529,18.9764706 Z" transform="translate(68.812 68.491)" fill="#26C9DE"/></g></svg>