<svg width="771.7" height="210" xmlns="http://www.w3.org/2000/svg" xml:space="preserve" version="1.1">

 <g>
  <title>Layer 1</title>
  <rect id="svg_1" fill="none" height="1080" width="1920" class="st0" y="-343.08" x="-236.15"/>
  <rect id="svg_2" fill="none" height="1080" width="1920" class="st0" y="-343.08" x="-236.15"/>
  <rect id="svg_3" fill="none" height="1080" width="1920" class="st0" y="-343.08" x="-236.15"/>
  <rect id="svg_4" fill="#FFFFFF" height="393.85" width="771.7" class="st1"/>
  <rect id="svg_5" fill="none" height="1080" width="1920" class="st0" y="-343.08" x="-236.15"/>
  <rect id="svg_6" fill="none" height="1080" width="1920" class="st0" y="-343.08" x="-236.15"/>
  <g id="svg_7">
   <path id="svg_8" fill="#333132" d="m128.49,274.86l22.83,0c5.65,0 10.54,0.96 14.68,2.86c4.14,1.91 7.3,4.61 9.48,8.11c2.18,3.5 3.27,7.61 3.27,12.34c0,6.62 -1.47,12.42 -4.4,17.43c-2.93,5 -7.06,8.88 -12.38,11.62s-11.46,4.11 -18.39,4.11l-26.38,0l11.29,-56.47zm15.41,47.6c4.95,0 9.25,-1.02 12.91,-3.07c3.66,-2.04 6.47,-4.85 8.43,-8.43c1.96,-3.58 2.94,-7.62 2.94,-12.14c0,-4.73 -1.53,-8.43 -4.6,-11.09c-3.07,-2.66 -7.53,-3.99 -13.39,-3.99l-12.99,0l-7.75,38.72l14.45,0z" class="st2"/>
   <path id="svg_9" fill="#333132" d="m190.77,288.26l10.08,0l-8.55,43.08l-10.08,0l8.55,-43.08zm2.99,-8.76c-1.13,-1.1 -1.69,-2.43 -1.69,-3.99c0,-1.83 0.63,-3.36 1.9,-4.6c1.26,-1.24 2.92,-1.86 4.96,-1.86c1.77,0 3.23,0.52 4.36,1.57s1.69,2.33 1.69,3.83c0,1.99 -0.63,3.6 -1.9,4.84c-1.26,1.24 -2.92,1.86 -4.96,1.86c-1.78,0.01 -3.23,-0.55 -4.36,-1.65z" class="st2"/>
   <path id="svg_10" fill="#333132" d="m209.13,330.57c-3.31,-0.89 -5.88,-2 -7.7,-3.35l4.2,-7.75c1.77,1.29 4.01,2.31 6.7,3.07c2.69,0.75 5.46,1.13 8.31,1.13c3.23,0 5.66,-0.44 7.3,-1.33c1.64,-0.89 2.46,-2.17 2.46,-3.83c0,-1.29 -0.69,-2.23 -2.06,-2.82c-1.37,-0.59 -3.54,-1.21 -6.49,-1.86c-3.07,-0.59 -5.58,-1.22 -7.54,-1.9c-1.96,-0.67 -3.66,-1.77 -5.08,-3.31c-1.43,-1.53 -2.14,-3.64 -2.14,-6.33c0,-4.46 1.87,-8 5.61,-10.61c3.74,-2.61 8.7,-3.91 14.89,-3.91c2.96,0 5.83,0.34 8.63,1.01c2.8,0.67 5.08,1.57 6.86,2.7l-3.71,7.75c-1.77,-1.13 -3.78,-1.96 -6.01,-2.5c-2.23,-0.54 -4.48,-0.81 -6.74,-0.81c-3.17,0 -5.58,0.48 -7.22,1.45c-1.64,0.97 -2.46,2.23 -2.46,3.79c0,1.4 0.71,2.41 2.14,3.03c1.42,0.62 3.64,1.25 6.66,1.9c3.01,0.59 5.49,1.22 7.42,1.9c1.94,0.67 3.6,1.76 5,3.27c1.4,1.51 2.1,3.55 2.1,6.13c0,4.63 -1.88,8.2 -5.65,10.73c-3.77,2.53 -8.77,3.79 -15.01,3.79c-3.69,-0.01 -7.17,-0.45 -10.47,-1.34z" class="st2"/>
   <path id="svg_11" fill="#333132" d="m296.46,288.26l-8.55,43.08l-9.6,0l0.89,-4.44c-3.77,3.34 -8.44,5 -14.04,5c-3.55,0 -6.76,-0.75 -9.64,-2.26c-2.88,-1.5 -5.15,-3.7 -6.82,-6.58c-1.67,-2.88 -2.5,-6.25 -2.5,-10.12c0,-4.79 1.06,-9.1 3.19,-12.95c2.12,-3.84 5.03,-6.84 8.71,-9c3.68,-2.15 7.81,-3.23 12.38,-3.23c6.88,0 11.78,2.29 14.68,6.86l1.21,-6.37l10.09,0l0,0.01zm-21.1,32.95c2.23,-1.37 3.99,-3.28 5.28,-5.73c1.29,-2.45 1.94,-5.23 1.94,-8.35c0,-3.39 -1,-6.04 -2.99,-7.95c-1.99,-1.91 -4.79,-2.86 -8.39,-2.86c-2.85,0 -5.39,0.69 -7.62,2.06c-2.23,1.37 -3.99,3.28 -5.28,5.73c-1.29,2.45 -1.94,5.23 -1.94,8.35c0,3.39 0.99,6.04 2.99,7.95c1.99,1.91 4.79,2.86 8.39,2.86c2.85,0 5.39,-0.69 7.62,-2.06z" class="st2"/>
   <path id="svg_12" fill="#333132" d="m304.73,330.57c-3.31,-0.89 -5.88,-2 -7.7,-3.35l4.2,-7.75c1.77,1.29 4.01,2.31 6.7,3.07c2.69,0.75 5.46,1.13 8.31,1.13c3.23,0 5.66,-0.44 7.3,-1.33c1.64,-0.89 2.46,-2.17 2.46,-3.83c0,-1.29 -0.69,-2.23 -2.06,-2.82c-1.37,-0.59 -3.54,-1.21 -6.49,-1.86c-3.07,-0.59 -5.58,-1.22 -7.54,-1.9c-1.96,-0.67 -3.66,-1.77 -5.08,-3.31c-1.43,-1.53 -2.14,-3.64 -2.14,-6.33c0,-4.46 1.87,-8 5.61,-10.61c3.74,-2.61 8.7,-3.91 14.89,-3.91c2.96,0 5.83,0.34 8.63,1.01c2.8,0.67 5.08,1.57 6.86,2.7l-3.71,7.75c-1.77,-1.13 -3.78,-1.96 -6.01,-2.5c-2.23,-0.54 -4.48,-0.81 -6.74,-0.81c-3.17,0 -5.58,0.48 -7.22,1.45c-1.64,0.97 -2.46,2.23 -2.46,3.79c0,1.4 0.71,2.41 2.14,3.03c1.42,0.62 3.64,1.25 6.66,1.9c3.01,0.59 5.49,1.22 7.42,1.9c1.94,0.67 3.6,1.76 5,3.27c1.4,1.51 2.1,3.55 2.1,6.13c0,4.63 -1.88,8.2 -5.65,10.73c-3.77,2.53 -8.77,3.79 -15.01,3.79c-3.68,-0.01 -7.16,-0.45 -10.47,-1.34z" class="st2"/>
   <path id="svg_13" fill="#333132" d="m355.6,316.9c-0.11,0.86 -0.16,1.48 -0.16,1.86c0,3.23 1.69,4.84 5.08,4.84c2.1,0 3.98,-0.56 5.65,-1.69l1.77,7.42c-2.74,1.72 -6.21,2.58 -10.41,2.58c-3.71,0 -6.7,-1.02 -8.96,-3.07c-2.26,-2.04 -3.39,-4.87 -3.39,-8.47c0,-1.18 0.11,-2.31 0.32,-3.39l4.11,-20.33l-7.02,0l1.61,-8.07l7.02,0l1.94,-9.84l10.08,0l-2.02,9.84l11.62,0l-1.61,8.07l-11.62,0l-4.01,20.25z" class="st2"/>
   <path id="svg_14" fill="#333132" d="m419.41,312.78l-34.21,0c0.16,7.05 4.3,10.57 12.42,10.57c2.47,0 4.79,-0.39 6.94,-1.17c2.15,-0.78 3.98,-1.87 5.49,-3.27l4.2,7.02c-2.21,1.99 -4.85,3.48 -7.95,4.48c-3.09,0.99 -6.33,1.49 -9.72,1.49c-4.3,0 -8.06,-0.78 -11.25,-2.34c-3.2,-1.56 -5.66,-3.78 -7.38,-6.66c-1.72,-2.88 -2.58,-6.2 -2.58,-9.96c0,-4.79 1.06,-9.1 3.19,-12.95c2.12,-3.84 5.08,-6.84 8.87,-9c3.79,-2.15 8.05,-3.23 12.79,-3.23c6.02,0 10.84,1.68 14.44,5.04c3.6,3.36 5.41,7.97 5.41,13.84c-0.01,2.11 -0.23,4.15 -0.66,6.14zm-28.36,-14.2c-2.39,1.83 -4.05,4.33 -4.96,7.5l24.69,0c0.05,-3.23 -0.93,-5.74 -2.94,-7.54c-2.02,-1.8 -4.72,-2.7 -8.11,-2.7c-3.39,0 -6.28,0.91 -8.68,2.74z" class="st2"/>
   <path id="svg_15" fill="#333132" d="m448.17,289.14c2.72,-0.91 5.96,-1.37 9.72,-1.37l-1.86,9.6c-0.92,-0.16 -1.75,-0.24 -2.5,-0.24c-8.23,0 -13.2,4.33 -14.93,12.99l-4.28,21.22l-10.08,0l8.55,-43.08l9.6,0l-1.13,5.57c1.9,-2.21 4.19,-3.77 6.91,-4.69z" class="st2"/>
   <path id="svg_16" fill="#333132" d="m491.37,274.86l10.49,0l-9.52,47.6l29.53,0l-1.77,8.88l-40.02,0l11.29,-56.48z" class="st2"/>
   <path id="svg_17" fill="#333132" d="m577.46,288.26l-8.55,43.08l-9.6,0l0.89,-4.44c-3.77,3.34 -8.44,5 -14.04,5c-3.55,0 -6.76,-0.75 -9.64,-2.26c-2.88,-1.5 -5.15,-3.7 -6.82,-6.58c-1.67,-2.88 -2.5,-6.25 -2.5,-10.12c0,-4.79 1.06,-9.1 3.19,-12.95c2.12,-3.84 5.03,-6.84 8.71,-9c3.68,-2.15 7.81,-3.23 12.38,-3.23c6.88,0 11.78,2.29 14.68,6.86l1.21,-6.37l10.09,0l0,0.01zm-21.1,32.95c2.23,-1.37 3.99,-3.28 5.28,-5.73c1.29,-2.45 1.94,-5.23 1.94,-8.35c0,-3.39 -1,-6.04 -2.99,-7.95c-1.99,-1.91 -4.79,-2.86 -8.39,-2.86c-2.85,0 -5.39,0.69 -7.62,2.06c-2.23,1.37 -3.99,3.28 -5.28,5.73c-1.29,2.45 -1.94,5.23 -1.94,8.35c0,3.39 0.99,6.04 2.99,7.95c1.99,1.91 4.79,2.86 8.39,2.86c2.84,0 5.39,-0.69 7.62,-2.06z" class="st2"/>
   <path id="svg_18" fill="#333132" d="m657.81,288.26l-24.04,43.08l-9.92,0l-5.81,-29.69l-16.86,29.69l-9.76,0l-7.91,-43.08l9.2,0l5.49,31.71l17.99,-31.71l8.63,0l5.73,31.71l17.75,-31.71l9.51,0z" class="st2"/>
  </g>
  <rect id="svg_19" fill="none" height="1080" width="1920" class="st0" y="-343.08" x="-236.15"/>
  <g id="svg_20">
   <path id="svg_21" fill="#333132" d="m667.84,163.3c9.77,0 18.62,-1.72 26.57,-5.15c7.95,-3.43 14.6,-8.43 19.97,-14.98l-16.75,-15.46c-7.62,8.91 -17.07,13.36 -28.34,13.36c-6.98,0 -13.21,-1.53 -18.68,-4.59c-5.47,-3.06 -9.74,-7.33 -12.8,-12.81c-3.06,-5.47 -4.59,-11.7 -4.59,-18.68c0,-6.98 1.53,-13.2 4.59,-18.68c3.06,-5.48 7.33,-9.74 12.8,-12.8c5.48,-3.06 11.7,-4.59 18.68,-4.59c11.27,0 20.72,4.41 28.34,13.21l16.75,-15.46c-5.37,-6.44 -12,-11.38 -19.89,-14.82c-7.89,-3.43 -16.72,-5.15 -26.49,-5.15c-11.59,0 -22.04,2.5 -31.32,7.49c-9.29,4.99 -16.59,11.92 -21.9,20.77c-5.32,8.86 -7.97,18.87 -7.97,30.03c0,11.17 2.66,21.18 7.97,30.03c5.31,8.86 12.61,15.78 21.9,20.78c9.28,5.01 19.67,7.5 31.16,7.5m-104.19,-73.75c0,6.22 -2.04,11.05 -6.12,14.49c-4.08,3.44 -10.04,5.15 -17.87,5.15l-21.26,0l0,-39.28l21.26,0c7.83,0 13.79,1.69 17.87,5.07c4.08,3.38 6.12,8.24 6.12,14.57m28.5,71.82l-25.28,-36.23c7.41,-3.22 13.12,-7.86 17.15,-13.93c4.02,-6.06 6.04,-13.28 6.04,-21.66c0,-8.38 -1.99,-15.62 -5.96,-21.74c-3.97,-6.12 -9.63,-10.84 -16.99,-14.17c-7.35,-3.33 -16.02,-4.99 -26.01,-4.99l-48.79,0l0,112.73l26.09,0l0,-31.4l22.7,0l1.29,0l21.74,31.4l28.02,0l0,-0.01zm-122.38,-91.79l0,-20.93l-85.19,0l0,112.73l26.09,0l0,-41.06l52.17,0l0,-20.94l-52.17,0l0,-29.8l59.1,0zm-138,91.79l26.09,0l0,-112.72l-26.09,0l0,112.72z" class="st2"/>
   <polygon id="svg_22" fill="#F5333F" points="97.58999633789062,122.68999862670898 57.31999969482422,122.68999862670898 57.31999969482422,88.16999435424805 97.58999633789062,88.16999435424805 97.58999633789062,88.15000534057617 97.58999633789062,47.87999725341797 132.11000061035156,47.87999725341797 132.11000061035156,88.15000534057617 132.10000610351562,88.16999435424805 172.3800048828125,88.16999435424805 172.3800048828125,122.68999862670898 132.10000610351562,122.68999862670898 132.11000061035156,122.68000411987305 132.11000061035156,162.95000839233398 97.58999633789062,162.95000839233398 97.58999633789062,122.68000411987305 " class="st3"/>
   <path id="svg_23" fill="#F5333F" d="m225.78,104.8c0,-26.82 21.74,-48.56 48.56,-48.56c5.97,0 11.69,1.08 16.97,3.05c-9.93,-7.86 -22.48,-12.55 -36.13,-12.55c-32.18,0 -58.27,26.09 -58.27,58.28c0,32.18 26.09,58.27 58.27,58.27c14.11,0 27.04,-5.01 37.12,-13.35c-5.56,2.21 -11.61,3.43 -17.96,3.43c-26.82,0 -48.56,-21.75 -48.56,-48.57" class="st3"/>
  </g>
  <rect id="svg_24" fill="#E3E3E3" height="4.62" width="648.93" class="st4" y="226.5" x="61.38"/>
 </g>
</svg>